<?xml version="1.0" encoding="UTF-8"?>
<svg id="Layer_2" data-name="Layer 2" xmlns="http://www.w3.org/2000/svg" viewBox="0 0 84.97 84.77">
  <defs>
    <style>
      .cls-1 {
        fill: #fff;
        fill-rule: evenodd;
      }
    </style>
  </defs>
  <g id="Layer_1-2" data-name="Layer 1">
    <path class="cls-1" d="M22.92,0H62.05c12.57,0,22.92,10.34,22.92,22.92V61.85c0,12.57-10.34,22.92-22.92,22.92H22.92c-12.57,0-22.92-10.34-22.92-22.92V22.92C0,10.34,10.34,0,22.92,0h0Zm42.38,14.8h0c2.64,0,4.87,2.23,4.87,4.87h0c0,2.64-2.23,4.87-4.87,4.87h0c-2.84,0-4.87-2.23-4.87-4.87h0c0-2.64,2.03-4.87,4.87-4.87h0Zm-22.92,4.46h.2c12.57,0,23.12,10.55,23.12,23.12h0c0,12.78-10.55,23.12-23.12,23.12h-.2c-12.57,0-22.92-10.34-22.92-23.12h0c0-12.57,10.34-23.12,22.92-23.12h0Zm0,7.91h.2c8.31,0,15.21,6.89,15.21,15.21h0c0,8.52-6.89,15.41-15.21,15.41h-.2c-8.31,0-15.21-6.89-15.21-15.41h0c0-8.31,6.89-15.21,15.21-15.21h0ZM23.12,7.3H61.85c8.72,0,15.82,7.1,15.82,15.82V61.65c0,8.72-7.1,15.82-15.82,15.82H23.12c-8.72,0-15.82-7.1-15.82-15.82V23.12c0-8.72,7.1-15.82,15.82-15.82h0Z"/>
  </g>
</svg>