<?xml version="1.0" encoding="UTF-8"?>
<svg id="Layer_1" data-name="Layer 1" xmlns="http://www.w3.org/2000/svg" viewBox="0 0 556.17 151.23">
  <defs>
    <style>
      .cls-1 {
        fill: #fff;
      }
    </style>
  </defs>
  <g>
    <path class="cls-1" d="M95.89,63.36c-8.06,0-14.04-2.12-17.94-6.37-3.9-4.24-5.85-10.98-5.85-20.22s1.95-15.98,5.85-20.22c3.9-4.24,9.88-6.37,17.94-6.37s14.11,2.12,17.98,6.37c3.87,4.24,5.81,10.99,5.81,20.22s-1.94,15.98-5.81,20.22c-3.87,4.24-9.86,6.37-17.98,6.37Zm0-5.61c3.9,0,7.11-.67,9.65-2,2.54-1.33,4.43-3.54,5.69-6.61,1.25-3.07,1.88-7.19,1.88-12.37s-.63-9.3-1.88-12.37c-1.25-3.07-3.15-5.27-5.69-6.61-2.54-1.33-5.75-2-9.65-2s-7.12,.67-9.65,2c-2.54,1.34-4.43,3.54-5.69,6.61-1.26,3.07-1.88,7.2-1.88,12.37s.63,9.3,1.88,12.37c1.25,3.07,3.15,5.27,5.69,6.61,2.54,1.34,5.75,2,9.65,2Z"/>
    <path class="cls-1" d="M129.28,62.56V10.98h21.78c5.77,0,10.01,1.55,12.73,4.65,2.72,3.1,4.08,7.1,4.08,12.01s-1.54,8.98-4.6,11.89c-3.07,2.91-7.25,4.36-12.53,4.36h-14.9v18.66h-6.57Zm6.57-23.79h13.85c3.84,0,6.74-1,8.69-3,1.95-2,2.92-4.71,2.92-8.13,0-3.63-.92-6.45-2.76-8.45-1.84-2-4.66-3-8.45-3h-14.26v22.58Z"/>
    <path class="cls-1" d="M175.89,62.56V10.98h20.18c7.47,0,12.95,2.03,16.42,6.09,3.47,4.06,5.21,10.73,5.21,20.02,0,8.81-1.7,15.26-5.09,19.34-3.39,4.08-8.9,6.13-16.54,6.13h-20.18Zm6.57-5.13h12.41c3.63,0,6.65-.55,9.05-1.64,2.4-1.09,4.2-3.11,5.41-6.05,1.2-2.94,1.8-7.15,1.8-12.65s-.55-9.69-1.64-12.73c-1.09-3.04-2.83-5.17-5.21-6.37-2.38-1.2-5.51-1.8-9.41-1.8h-12.41V57.43Z"/>
    <path class="cls-1" d="M221.3,62.56l19.62-51.58h7.69l19.54,51.58h-6.73l-5.45-14.18h-22.42l-5.45,14.18h-6.81Zm13.37-19.38h20.1l-10.09-26.51-10.01,26.51Z"/>
    <path class="cls-1" d="M296.5,63.36c-5.55,0-10.16-1.05-13.81-3.16-3.66-2.11-6.39-5.07-8.21-8.89-1.82-3.82-2.72-8.29-2.72-13.41,0-5.61,.85-10.49,2.56-14.66,1.71-4.16,4.38-7.38,8.01-9.65,3.63-2.27,8.33-3.4,14.1-3.4,2.99,0,5.7,.21,8.13,.64,2.43,.43,4.71,1.01,6.85,1.76v5.77c-2.14-.8-4.4-1.43-6.81-1.88-2.4-.45-4.94-.68-7.61-.68-4.64,0-8.33,.88-11.05,2.64-2.72,1.76-4.67,4.3-5.85,7.61-1.18,3.31-1.76,7.26-1.76,11.85,0,6.35,1.47,11.25,4.4,14.7,2.94,3.44,7.66,5.17,14.17,5.17,2.3,0,4.51-.19,6.65-.56,2.13-.37,4.03-.88,5.69-1.52v-16.42h-13.78v-4.48h19.46v24.51c-1.55,1.02-3.8,1.95-6.77,2.8-2.96,.85-6.85,1.28-11.65,1.28Z"/>
    <path class="cls-1" d="M342.95,62.56V10.98h20.18c7.47,0,12.95,2.03,16.42,6.09,3.47,4.06,5.21,10.73,5.21,20.02,0,8.81-1.7,15.26-5.09,19.34-3.39,4.08-8.9,6.13-16.54,6.13h-20.18Zm6.57-5.13h12.41c3.63,0,6.65-.55,9.05-1.64,2.4-1.09,4.2-3.11,5.41-6.05,1.2-2.94,1.8-7.15,1.8-12.65s-.55-9.69-1.64-12.73c-1.1-3.04-2.83-5.17-5.21-6.37-2.38-1.2-5.51-1.8-9.41-1.8h-12.41V57.43Z"/>
    <path class="cls-1" d="M394.37,62.56V10.98h6.57V62.56h-6.57Z"/>
    <path class="cls-1" d="M426.08,62.56V16.19h-17.14v-5.21h40.84v5.21h-17.14V62.56h-6.57Z"/>
    <path class="cls-1" d="M71.7,138.19v-51.58h15.06v18.18l15.62-18.18h17.14l-18.18,21.14,19.46,30.43h-16.02l-12.73-20.82-5.29,5.93v14.9h-15.06Z"/>
    <path class="cls-1" d="M131.28,142.44l2.32-5.93c-4.06-1.81-7.14-4.69-9.25-8.61-2.11-3.92-3.16-9.04-3.16-15.34s1.01-11.57,3.04-15.5c2.03-3.92,5.01-6.78,8.93-8.57,3.92-1.79,8.72-2.68,14.38-2.68,1.07,0,2.09,.04,3.08,.12,.99,.08,1.94,.17,2.84,.28l1.36-3.52h8.17l-2.16,5.37c4.27,1.71,7.51,4.55,9.73,8.53,2.21,3.98,3.32,9.3,3.32,15.98,0,9.29-2.27,16.02-6.81,20.18-4.54,4.17-11.05,6.25-19.54,6.25-2.35,0-4.54-.16-6.57-.48l-1.52,3.92h-8.17Zm7.77-19.62l9.45-24.11c-.16,0-.32-.01-.48-.04-.16-.03-.32-.04-.48-.04-3.84,0-6.63,1.06-8.37,3.16-1.74,2.11-2.6,5.7-2.6,10.77,0,4.65,.83,8.06,2.48,10.25Zm8.49,3.36c3.84,0,6.63-1.08,8.37-3.24,1.73-2.16,2.6-5.62,2.6-10.37,0-5.23-.99-8.94-2.96-11.13l-9.69,24.67c.27,.05,.55,.08,.84,.08h.84Z"/>
    <path class="cls-1" d="M181.1,138.19v-51.58h28.35c5.23,0,9.21,1.23,11.93,3.68,2.72,2.46,4.08,5.98,4.08,10.57,0,2.67-.49,4.91-1.48,6.73-.99,1.82-2.28,3.26-3.88,4.33,2.19,.85,3.94,2.1,5.25,3.72,1.31,1.63,1.96,4.04,1.96,7.25,0,4.86-1.5,8.62-4.48,11.29-2.99,2.67-7.24,4-12.73,4h-28.99Zm14.5-30.99h9.77c3.68,0,5.53-1.65,5.53-4.96,0-1.65-.44-2.91-1.32-3.76-.88-.85-2.42-1.28-4.6-1.28h-9.37v10.01Zm0,20.5h10.41c2.03,0,3.52-.43,4.48-1.28,.96-.85,1.44-2.27,1.44-4.25,0-1.65-.48-2.91-1.44-3.76-.96-.85-2.56-1.28-4.81-1.28h-10.09v10.57Z"/>
    <path class="cls-1" d="M234.52,138.19v-51.58h39.08v11.53h-24.03v8.41h21.06v11.69h-21.06v8.41h24.03v11.53h-39.08Z"/>
    <path class="cls-1" d="M280,138.19v-51.58h12.81l19.46,27.31v-27.31h15.06v51.58h-12.89l-19.38-27.23v27.23h-15.06Z"/>
    <path class="cls-1" d="M336.15,138.19v-51.58h15.06v19.22h17.78v-19.22h15.06v51.58h-15.06v-19.22h-17.78v19.22h-15.06Z"/>
    <path class="cls-1" d="M391.24,138.19l19.78-51.58h15.94l19.78,51.58h-15.7l-4.33-10.97h-15.54l-4.25,10.97h-15.7Zm21.94-21.78h11.53l-5.77-15.14-5.77,15.14Z"/>
    <path class="cls-1" d="M460.12,138.19l-19.78-51.58h15.7l12.01,34.12,12.01-34.12h15.78l-19.78,51.58h-15.94Z"/>
    <path class="cls-1" d="M501.84,138.19v-51.58h12.81l19.46,27.31v-27.31h15.06v51.58h-12.89l-19.38-27.23v27.23h-15.06Z"/>
  </g>
  <path class="cls-1" d="M8.89,137.41v-23.99c0-2.74-1.06-3.13-1.96-3.75-.95-.67-.84-2.57,.84-2.57H45.24c1.68,0,1.79,1.9,.84,2.57-.9,.62-1.96,1.01-1.96,3.75v23.99c0,.39-.22,.56-.61,.56H9.5c-.39,0-.61-.17-.61-.56Zm30.64-32.83h-9.34v-11.74c0-2.68-1.4-3.97-3.69-3.97s-3.69,1.29-3.69,3.97v11.74H13.47c-.22,0-.5-.17-.5-.5v-18.01c0-1.4-1.68-2.12-2.13-2.4-1.06-.78-.67-1.9,.34-1.9h30.64c1.01,0,1.4,1.12,.34,1.9-.45,.28-2.12,1.01-2.12,2.4v18.01c0,.34-.28,.5-.5,.5Zm.11-28.07v2.18c0,.39-.22,.5-.5,.5H13.14c-.34,0-.56-.11-.56-.5v-2.18c0-.39,.22-.5,.56-.5h2.01v-2.24c0-.39,.06-.56,.5-.84l20.41-11.52c.56-.34,1.01-.22,1.01,.34v14.26h2.07c.28,0,.5,.11,.5,.5Zm-4.75-33.16v6.26c0,.62-.34,1.12-.84,1.4l-.56,.28v7.61c0,.56-.11,.84-.61,1.12l-12.64,7.21c-.5,.22-.89,.11-.89-.39v-7.16l-.9,.5c-.5,.39-.9,.11-.9-.39v-6.49c0-.5,.39-.78,.9-1.01l15.6-9.45c.5-.11,.84,.11,.84,.5Zm-2.4-12.47v3.69c0,.84-.06,.95-.84,1.4l-.45,.28v4.42c0,.73-.06,.84-.62,1.17l-8.05,4.59c-.56,.34-.9,.11-.9-.39v-3.97l-.9,.56c-.56,.28-1.01,.17-1.01-.67v-3.41c0-.73,.11-.84,1.01-1.4l10.85-6.77c.5-.34,.9-.06,.9,.5Zm-5.98,86.29c-2.46,0-4.7,1.29-4.7,4.75v11.35h9.39v-11.35c0-3.47-2.24-4.75-4.7-4.75Zm2.18-88.02l-4.75,2.85c-.5,.34-.9,.17-.9-.5v-3.58c0-.62,.11-.9,.73-1.34l1.45-.95v-5.7c-1.51-.5-2.8-1.9-2.8-3.58,0-1.79,1.29-3.19,2.8-3.58v-1.68c0-.56,.28-1.01,.95-1.01,.73,0,.95,.45,.95,1.01v1.68c1.68,.39,2.85,1.79,2.85,3.58,0,1.68-1.17,3.08-2.85,3.58v4.59l1.29-.9c.45-.34,.9-.22,.9,.39v3.97c0,.73-.06,.84-.62,1.17Z"/>
</svg>