<?xml version="1.0" encoding="UTF-8"?>
<svg id="Layer_2" data-name="Layer 2" xmlns="http://www.w3.org/2000/svg" viewBox="0 0 119.01 84.28">
  <defs>
    <style>
      .cls-1 {
        fill: #fff;
      }

      .cls-1, .cls-2 {
        fill-rule: evenodd;
      }

      .cls-2 {
        fill: #231f20;
      }
    </style>
  </defs>
  <g id="Layer_1-2" data-name="Layer 1">
    <g>
      <path class="cls-1" d="M23.85,1.39C35.43,.46,49.09,0,59.51,0h0c10.42,0,23.85,.46,35.66,1.39,13.66,1.16,20.61,3.47,22.46,17.13,.93,6.25,1.39,14.82,1.39,23.62h0c0,8.8-.46,17.6-1.39,23.62-1.85,13.89-8.8,15.98-22.46,17.13-11.81,1.16-25.24,1.39-35.66,1.39h0c-10.42,0-24.08-.23-35.66-1.39-13.66-1.16-20.84-3.24-22.69-17.13-.69-6.02-1.16-14.82-1.16-23.62H0c0-8.8,.46-17.37,1.16-23.62C3.01,4.86,10.19,2.55,23.85,1.39h0Z"/>
      <polygon class="cls-2" points="47.47 24.31 78.49 42.14 47.47 60.2 47.47 24.31"/>
    </g>
  </g>
</svg>